<?xml version="1.0" standalone="no"?><svg xmlns:xlink="https://www.w3.org/1999/xlink" xmlns="https://www.w3.org/2000/svg" viewBox="0 0 1300 742.8571428571428" preserveAspectRatio="xMaxYMax slice"><g transform="scale(1.0582010582010581)"><rect x="0" y="0" width="1228.5" height="702" fill="#ffffff"/><path d="M 371.19 96.81 A 18.12 18.12 0 0 1  389.31 78.69 L 371.19 96.81 A 18.12 18.12 0 0 0 389.31 78.69" fill="#fff5f7"/><rect x="367.9817142857143" y="133.98171428571428" width="24.536571428571428" height="24.536571428571428" fill="#ffffff"/><rect x="482.8422857142857" y="131.8422857142857" width="28.81542857142857" height="28.81542857142857" fill="#ffffff"/><g transform="translate(482.84,131.84) scale(0.7205) rotate(0)"><path fill-rule="evenodd" clip-rule="evenodd" d="M10 20C15.5228 20 20 15.5228 20 10C20 4.47715 15.5228 0 10 0C4.47715 0 0 4.47715 0 10C0 15.5228 4.47715 20 10 20ZM10 17C13.866 17 17 13.866 17 10C17 6.13401 13.866 3 10 3C6.13401 3 3 6.13401 3 10C3 13.866 6.13401 17 10 17Z" fill="#f9fafe"/></g><g transform="translate(482.84,146.25) scale(0.7205) rotate(0)"><path fill-rule="evenodd" clip-rule="evenodd" d="M10 20C15.5228 20 20 15.5228 20 10C20 4.47715 15.5228 0 10 0C4.47715 0 0 4.47715 0 10C0 15.5228 4.47715 20 10 20ZM10 17C13.866 17 17 13.866 17 10C17 6.13401 13.866 3 10 3C6.13401 3 3 6.13401 3 10C3 13.866 6.13401 17 10 17Z" fill="#1f44e2"/></g><path d="M 540.54 131.04 A 30.42 30.42 0 0 1  570.9599999999999 161.45999999999998 L 540.54 131.04 A 30.42 30.42 0 0 0 570.9599999999999 161.45999999999998" fill="#ff7b9a"/><circle cx="614.25" cy="146.25" r="15.21" fill="#ff6086"/><path d="M 834.91 132.91 A 26.68 26.68 0 0 1 861.5899999999999 159.59 L 834.91 159.59" fill="#889cf0"/><g transform="translate(250.98,192.48) scale(1.2269999999999999) rotate(0)"><path fill-rule="evenodd" clip-rule="evenodd" d="M10 20C15.5228 20 20 15.5228 20 10C20 4.47715 15.5228 0 10 0C4.47715 0 0 4.47715 0 10C0 15.5228 4.47715 20 10 20ZM10 17C13.866 17 17 13.866 17 10C17 6.13401 13.866 3 10 3C6.13401 3 3 6.13401 3 10C3 13.866 6.13401 17 10 17Z" fill="#ff7999"/></g><circle cx="380.245" cy="204.745" r="15.475" fill="#9dadf2"/><circle cx="555.75" cy="204.75" r="19.89" fill="#f7f9fe"/><circle cx="672.75" cy="204.75" r="19.89" fill="#8297ef"/><rect x="771.0634285714286" y="186.06342857142857" width="37.37314285714285" height="37.37314285714285" fill="#ffffff"/><circle cx="780.405" cy="195.405" r="9.345" fill="#3154e4"/><circle cx="799.095" cy="195.405" r="9.345" fill="#ffebf0"/><g transform="translate(771.06,204.75) scale(0.9345000000000001) rotate(0)"><path fill-rule="evenodd" clip-rule="evenodd" d="M10 20C15.5228 20 20 15.5228 20 10C20 4.47715 15.5228 0 10 0C4.47715 0 0 4.47715 0 10C0 15.5228 4.47715 20 10 20ZM10 17C13.866 17 17 13.866 17 10C17 6.13401 13.866 3 10 3C6.13401 3 3 6.13401 3 10C3 13.866 6.13401 17 10 17Z" fill="#ff3c6b"/></g><path d="M 789.75 223.44 A 18.69 18.69 0 0 1  808.44 204.75 L 808.44 223.44" fill="#d4dbf9"/><circle cx="848.25" cy="204.75" r="17.08" fill="#ff3e6c"/><rect x="891.2725714285714" y="189.27257142857144" width="30.954857142857136" height="30.954857142857136" fill="#ffffff"/><path d="M 891.27 189.27 A 15.48 15.48 0 0 1 906.75 204.75 L 891.27 204.75" fill="#99aaf2"/><path d="M 906.75 204.75 A 15.48 15.48 0 0 1  922.23 189.27 L 922.23 204.75" fill="#ff7b9a"/><circle cx="899.01" cy="212.49" r="7.74" fill="#ff93ad"/><path d="M 906.75 204.75 A 15.48 15.48 0 0 1 922.23 220.23 L 906.75 220.23" fill="#ff4470"/><circle cx="204.75" cy="263.25" r="12.27" fill="#ffd7e0"/><rect x="248.8422857142857" y="248.8422857142857" width="28.81542857142857" height="28.81542857142857" fill="#ffffff"/><g transform="translate(248.84,248.84) scale(0.7205) rotate(0)"><path fill-rule="evenodd" clip-rule="evenodd" d="M10 20C15.5228 20 20 15.5228 20 10C20 4.47715 15.5228 0 10 0C4.47715 0 0 4.47715 0 10C0 15.5228 4.47715 20 10 20ZM10 17C13.866 17 17 13.866 17 10C17 6.13401 13.866 3 10 3C6.13401 3 3 6.13401 3 10C3 13.866 6.13401 17 10 17Z" fill="#95a7f1"/></g><rect x="305.20285714285717" y="246.70285714285714" width="33.09428571428572" height="33.09428571428572" fill="#ffffff"/><g transform="translate(321.75,246.7) scale(0.8275) rotate(0)"><path fill-rule="evenodd" clip-rule="evenodd" d="M10 20C15.5228 20 20 15.5228 20 10C20 4.47715 15.5228 0 10 0C4.47715 0 0 4.47715 0 10C0 15.5228 4.47715 20 10 20ZM10 17C13.866 17 17 13.866 17 10C17 6.13401 13.866 3 10 3C6.13401 3 3 6.13401 3 10C3 13.866 6.13401 17 10 17Z" fill="#2d50e4"/></g><g transform="translate(361.56,244.56) scale(1.8684999999999998) rotate(0)"><path fill-rule="evenodd" clip-rule="evenodd" d="M10 20C15.5228 20 20 15.5228 20 10C20 4.47715 15.5228 0 10 0C4.47715 0 0 4.47715 0 10C0 15.5228 4.47715 20 10 20ZM10 17C13.866 17 17 13.866 17 10C17 6.13401 13.866 3 10 3C6.13401 3 3 6.13401 3 10C3 13.866 6.13401 17 10 17Z" fill="#f8f9fe"/></g><rect x="474.28457142857144" y="240.28457142857144" width="45.930857142857135" height="45.930857142857135" fill="#ffffff"/><g transform="translate(474.28,240.28) scale(1.1484999999999999) rotate(0)"><path fill-rule="evenodd" clip-rule="evenodd" d="M10 20C15.5228 20 20 15.5228 20 10C20 4.47715 15.5228 0 10 0C4.47715 0 0 4.47715 0 10C0 15.5228 4.47715 20 10 20ZM10 17C13.866 17 17 13.866 17 10C17 6.13401 13.866 3 10 3C6.13401 3 3 6.13401 3 10C3 13.866 6.13401 17 10 17Z" fill="#ff9db5"/></g><circle cx="508.735" cy="251.765" r="11.485" fill="#ff3a69"/><g transform="translate(474.28,263.25) scale(1.1484999999999999) rotate(0)"><path fill-rule="evenodd" clip-rule="evenodd" d="M10 20C15.5228 20 20 15.5228 20 10C20 4.47715 15.5228 0 10 0C4.47715 0 0 4.47715 0 10C0 15.5228 4.47715 20 10 20ZM10 17C13.866 17 17 13.866 17 10C17 6.13401 13.866 3 10 3C6.13401 3 3 6.13401 3 10C3 13.866 6.13401 17 10 17Z" fill="#ff6d90"/></g><circle cx="508.735" cy="274.735" r="11.485" fill="#a0b0f3"/><rect x="531.18" y="238.68" width="49.14" height="49.14" fill="#ffffff"/><path d="M 531.18 238.68 A 24.57 24.57 0 0 1  555.75 263.25 L 531.18 238.68 A 24.57 24.57 0 0 0 555.75 263.25" fill="#4c6be8"/><g transform="translate(531.18,263.25) scale(1.2285) rotate(0)"><path fill-rule="evenodd" clip-rule="evenodd" d="M10 20C15.5228 20 20 15.5228 20 10C20 4.47715 15.5228 0 10 0C4.47715 0 0 4.47715 0 10C0 15.5228 4.47715 20 10 20ZM10 17C13.866 17 17 13.866 17 10C17 6.13401 13.866 3 10 3C6.13401 3 3 6.13401 3 10C3 13.866 6.13401 17 10 17Z" fill="#aebcf5"/></g><path d="M 555.75 287.82 A 24.57 24.57 0 0 1  580.32 263.25 L 580.32 287.82" fill="#b6c2f6"/><circle cx="614.25" cy="263.25" r="24.57" fill="#788fed"/><rect x="648.18" y="238.68" width="49.14" height="49.14" fill="#ffffff"/><path d="M 648.18 263.25 A 24.57 24.57 0 0 1  672.75 238.68 L 672.75 263.25" fill="#e1e6fb"/><path d="M 672.75 238.68 A 24.57 24.57 0 0 1  697.32 263.25 L 672.75 238.68 A 24.57 24.57 0 0 0 697.32 263.25" fill="#f6f8fe"/><g transform="translate(648.18,263.25) scale(1.2285) rotate(0)"><path fill-rule="evenodd" clip-rule="evenodd" d="M10 20C15.5228 20 20 15.5228 20 10C20 4.47715 15.5228 0 10 0C4.47715 0 0 4.47715 0 10C0 15.5228 4.47715 20 10 20ZM10 17C13.866 17 17 13.866 17 10C17 6.13401 13.866 3 10 3C6.13401 3 3 6.13401 3 10C3 13.866 6.13401 17 10 17Z" fill="#4a68e7"/></g><g transform="translate(672.75,263.25) scale(1.2285) rotate(0)"><path fill-rule="evenodd" clip-rule="evenodd" d="M10 20C15.5228 20 20 15.5228 20 10C20 4.47715 15.5228 0 10 0C4.47715 0 0 4.47715 0 10C0 15.5228 4.47715 20 10 20ZM10 17C13.866 17 17 13.866 17 10C17 6.13401 13.866 3 10 3C6.13401 3 3 6.13401 3 10C3 13.866 6.13401 17 10 17Z" fill="#ff6388"/></g><rect x="706.68" y="238.68" width="49.14" height="49.14" fill="#ffffff"/><path d="M 706.68 263.25 A 24.57 24.57 0 0 0 731.25 238.68 L 706.68 238.68" fill="#ff9bb2"/><path d="M 731.25 263.25 A 24.57 24.57 0 0 1  755.82 238.68 L 755.82 263.25" fill="#1d43e2"/><g transform="translate(706.68,263.25) scale(1.2285) rotate(0)"><path fill-rule="evenodd" clip-rule="evenodd" d="M10 20C15.5228 20 20 15.5228 20 10C20 4.47715 15.5228 0 10 0C4.47715 0 0 4.47715 0 10C0 15.5228 4.47715 20 10 20ZM10 17C13.866 17 17 13.866 17 10C17 6.13401 13.866 3 10 3C6.13401 3 3 6.13401 3 10C3 13.866 6.13401 17 10 17Z" fill="#a3b2f3"/></g><path d="M 731.25 263.25 A 24.57 24.57 0 0 1 755.82 287.82 L 731.25 287.82" fill="#ff6d90"/><circle cx="789.745" cy="263.245" r="22.965" fill="#ffd3dd"/><circle cx="965.245" cy="263.245" r="16.545" fill="#edf0fd"/><rect x="246.70285714285714" y="305.20285714285717" width="33.09428571428571" height="33.09428571428571" fill="#ffffff"/><path d="M 246.7 305.2 A 16.55 16.55 0 0 0 263.25 321.75 L 263.25 305.2" fill="#ff7596"/><path d="M 263.25 305.2 A 16.55 16.55 0 0 1  279.8 321.75 L 263.25 305.2 A 16.55 16.55 0 0 0 279.8 321.75" fill="#ff7193"/><circle cx="254.975" cy="330.025" r="8.275" fill="#5370e9"/><g transform="translate(263.25,321.75) scale(0.8275) rotate(0)"><path fill-rule="evenodd" clip-rule="evenodd" d="M10 20C15.5228 20 20 15.5228 20 10C20 4.47715 15.5228 0 10 0C4.47715 0 0 4.47715 0 10C0 15.5228 4.47715 20 10 20ZM10 17C13.866 17 17 13.866 17 10C17 6.13401 13.866 3 10 3C6.13401 3 3 6.13401 3 10C3 13.866 6.13401 17 10 17Z" fill="#2a4ee3"/></g><g transform="translate(302.53,302.53) scale(1.922) rotate(0)"><path fill-rule="evenodd" clip-rule="evenodd" d="M10 20C15.5228 20 20 15.5228 20 10C20 4.47715 15.5228 0 10 0C4.47715 0 0 4.47715 0 10C0 15.5228 4.47715 20 10 20ZM10 17C13.866 17 17 13.866 17 10C17 6.13401 13.866 3 10 3C6.13401 3 3 6.13401 3 10C3 13.866 6.13401 17 10 17Z" fill="#b9c5f6"/></g><g transform="translate(414.18,297.18) scale(2.457) rotate(0)"><path fill-rule="evenodd" clip-rule="evenodd" d="M10 20C15.5228 20 20 15.5228 20 10C20 4.47715 15.5228 0 10 0C4.47715 0 0 4.47715 0 10C0 15.5228 4.47715 20 10 20ZM10 17C13.866 17 17 13.866 17 10C17 6.13401 13.866 3 10 3C6.13401 3 3 6.13401 3 10C3 13.866 6.13401 17 10 17Z" fill="#d5dcfa"/></g><rect x="470.0057142857143" y="294.5057142857143" width="54.488571428571426" height="54.488571428571426" fill="#ffffff"/><path d="M 470.01 321.75 A 27.24 27.24 0 0 1  497.25 294.51 L 470.01 321.75 A 27.24 27.24 0 0 0 497.25 294.51" fill="#ff4a75"/><path d="M 497.25 294.51 A 27.24 27.24 0 0 1 524.49 321.75 L 497.25 321.75" fill="#4b69e8"/><path d="M 497.25 321.75 A 27.24 27.24 0 0 1 524.49 348.99 L 497.25 348.99" fill="#2b4fe3"/><path d="M 526.5 292.5 A 58.5 58.5 0 0 1 585 351 L 526.5 351" fill="#ff88a4"/><path d="M 585 292.5 A 58.5 58.5 0 0 0 643.5 351 L 643.5 292.5" fill="#ffbacb"/><circle cx="672.75" cy="321.75" r="29.25" fill="#adbbf4"/><g transform="translate(702,292.5) scale(2.925) rotate(0)"><path fill-rule="evenodd" clip-rule="evenodd" d="M10 20C15.5228 20 20 15.5228 20 10C20 4.47715 15.5228 0 10 0C4.47715 0 0 4.47715 0 10C0 15.5228 4.47715 20 10 20ZM10 17C13.866 17 17 13.866 17 10C17 6.13401 13.866 3 10 3C6.13401 3 3 6.13401 3 10C3 13.866 6.13401 17 10 17Z" fill="#ff7294"/></g><circle cx="848.25" cy="321.75" r="24.57" fill="#ffceda"/><path d="M 946.03 302.53 A 38.44 38.44 0 0 1  984.47 340.96999999999997 L 946.03 302.53 A 38.44 38.44 0 0 0 984.47 340.96999999999997" fill="#ff517b"/><rect x="1007.2028571428572" y="305.20285714285717" width="33.09428571428571" height="33.09428571428571" fill="#ffffff"/><g transform="translate(1023.75,305.2) scale(0.8275) rotate(0)"><path fill-rule="evenodd" clip-rule="evenodd" d="M10 20C15.5228 20 20 15.5228 20 10C20 4.47715 15.5228 0 10 0C4.47715 0 0 4.47715 0 10C0 15.5228 4.47715 20 10 20ZM10 17C13.866 17 17 13.866 17 10C17 6.13401 13.866 3 10 3C6.13401 3 3 6.13401 3 10C3 13.866 6.13401 17 10 17Z" fill="#758ced"/></g><g transform="translate(1023.75,321.75) scale(0.8275) rotate(0)"><path fill-rule="evenodd" clip-rule="evenodd" d="M10 20C15.5228 20 20 15.5228 20 10C20 4.47715 15.5228 0 10 0C4.47715 0 0 4.47715 0 10C0 15.5228 4.47715 20 10 20ZM10 17C13.866 17 17 13.866 17 10C17 6.13401 13.866 3 10 3C6.13401 3 3 6.13401 3 10C3 13.866 6.13401 17 10 17Z" fill="#b7c3f6"/></g><g transform="translate(135.05,369.05) scale(1.1199999999999999) rotate(0)"><path fill-rule="evenodd" clip-rule="evenodd" d="M10 20C15.5228 20 20 15.5228 20 10C20 4.47715 15.5228 0 10 0C4.47715 0 0 4.47715 0 10C0 15.5228 4.47715 20 10 20ZM10 17C13.866 17 17 13.866 17 10C17 6.13401 13.866 3 10 3C6.13401 3 3 6.13401 3 10C3 13.866 6.13401 17 10 17Z" fill="#a6b5f3"/></g><rect x="246.70285714285714" y="363.70285714285717" width="33.09428571428571" height="33.09428571428571" fill="#ffffff"/><g transform="translate(246.7,363.7) scale(0.8275) rotate(0)"><path fill-rule="evenodd" clip-rule="evenodd" d="M10 20C15.5228 20 20 15.5228 20 10C20 4.47715 15.5228 0 10 0C4.47715 0 0 4.47715 0 10C0 15.5228 4.47715 20 10 20ZM10 17C13.866 17 17 13.866 17 10C17 6.13401 13.866 3 10 3C6.13401 3 3 6.13401 3 10C3 13.866 6.13401 17 10 17Z" fill="#ffd0db"/></g><path d="M 263.25 380.25 A 16.55 16.55 0 0 1  279.8 363.7 L 279.8 380.25" fill="#ff577f"/><path d="M 246.7 380.25 A 16.55 16.55 0 0 1  263.25 396.8 L 246.7 380.25 A 16.55 16.55 0 0 0 263.25 396.8" fill="#b0bdf5"/><circle cx="438.75" cy="380.25" r="24.57" fill="#fcfcff"/><g transform="translate(470.01,353.01) scale(2.7245) rotate(0)"><path fill-rule="evenodd" clip-rule="evenodd" d="M10 20C15.5228 20 20 15.5228 20 10C20 4.47715 15.5228 0 10 0C4.47715 0 0 4.47715 0 10C0 15.5228 4.47715 20 10 20ZM10 17C13.866 17 17 13.866 17 10C17 6.13401 13.866 3 10 3C6.13401 3 3 6.13401 3 10C3 13.866 6.13401 17 10 17Z" fill="#ff84a1"/></g><path d="M 526.5 409.5 A 58.5 58.5 0 0 0 585 351 L 526.5 351" fill="#6881eb"/><g transform="translate(585,351) scale(2.925) rotate(0)"><path fill-rule="evenodd" clip-rule="evenodd" d="M10 20C15.5228 20 20 15.5228 20 10C20 4.47715 15.5228 0 10 0C4.47715 0 0 4.47715 0 10C0 15.5228 4.47715 20 10 20ZM10 17C13.866 17 17 13.866 17 10C17 6.13401 13.866 3 10 3C6.13401 3 3 6.13401 3 10C3 13.866 6.13401 17 10 17Z" fill="#ff9ab2"/></g><circle cx="672.75" cy="380.25" r="29.25" fill="#fafbfe"/><path d="M 702 351 A 58.5 58.5 0 0 1 760.5 409.5 L 702 409.5" fill="#ff658a"/><circle cx="848.25" cy="380.25" r="24.57" fill="#859aef"/><g transform="translate(884.85,358.35) scale(2.1895) rotate(0)"><path fill-rule="evenodd" clip-rule="evenodd" d="M10 20C15.5228 20 20 15.5228 20 10C20 4.47715 15.5228 0 10 0C4.47715 0 0 4.47715 0 10C0 15.5228 4.47715 20 10 20ZM10 17C13.866 17 17 13.866 17 10C17 6.13401 13.866 3 10 3C6.13401 3 3 6.13401 3 10C3 13.866 6.13401 17 10 17Z" fill="#ff3a69"/></g><rect x="946.0285714285715" y="361.0285714285714" width="38.442857142857136" height="38.442857142857136" fill="#ffffff"/><g transform="translate(946.03,361.03) scale(0.961) rotate(0)"><path fill-rule="evenodd" clip-rule="evenodd" d="M10 20C15.5228 20 20 15.5228 20 10C20 4.47715 15.5228 0 10 0C4.47715 0 0 4.47715 0 10C0 15.5228 4.47715 20 10 20ZM10 17C13.866 17 17 13.866 17 10C17 6.13401 13.866 3 10 3C6.13401 3 3 6.13401 3 10C3 13.866 6.13401 17 10 17Z" fill="#dce2fa"/></g><path d="M 965.25 361.03 A 19.22 19.22 0 0 1  984.47 380.25 L 965.25 361.03 A 19.22 19.22 0 0 0 984.47 380.25" fill="#2146e2"/><g transform="translate(946.03,380.25) scale(0.961) rotate(0)"><path fill-rule="evenodd" clip-rule="evenodd" d="M10 20C15.5228 20 20 15.5228 20 10C20 4.47715 15.5228 0 10 0C4.47715 0 0 4.47715 0 10C0 15.5228 4.47715 20 10 20ZM10 17C13.866 17 17 13.866 17 10C17 6.13401 13.866 3 10 3C6.13401 3 3 6.13401 3 10C3 13.866 6.13401 17 10 17Z" fill="#ffa6bc"/></g><path d="M 965.25 399.47 A 19.22 19.22 0 0 0 984.47 380.25 L 965.25 380.25" fill="#ffedf1"/><circle cx="204.755" cy="438.755" r="13.875" fill="#4564e7"/><rect x="246.70285714285714" y="422.20285714285717" width="33.09428571428571" height="33.09428571428571" fill="#ffffff"/><path d="M 246.7 422.2 A 16.55 16.55 0 0 1  263.25 438.75 L 246.7 422.2 A 16.55 16.55 0 0 0 263.25 438.75" fill="#9fb0f3"/><circle cx="271.525" cy="430.47499999999997" r="8.275" fill="#ffaabe"/><g transform="translate(302.53,419.53) scale(1.922) rotate(0)"><path fill-rule="evenodd" clip-rule="evenodd" d="M10 20C15.5228 20 20 15.5228 20 10C20 4.47715 15.5228 0 10 0C4.47715 0 0 4.47715 0 10C0 15.5228 4.47715 20 10 20ZM10 17C13.866 17 17 13.866 17 10C17 6.13401 13.866 3 10 3C6.13401 3 3 6.13401 3 10C3 13.866 6.13401 17 10 17Z" fill="#90a2f1"/></g><path d="M 358.35 460.64000000000004 A 43.79 43.79 0 0 1  402.14000000000004 416.85 L 402.14000000000004 460.64000000000004" fill="#5370e9"/><g transform="translate(414.18,414.18) scale(2.457) rotate(0)"><path fill-rule="evenodd" clip-rule="evenodd" d="M10 20C15.5228 20 20 15.5228 20 10C20 4.47715 15.5228 0 10 0C4.47715 0 0 4.47715 0 10C0 15.5228 4.47715 20 10 20ZM10 17C13.866 17 17 13.866 17 10C17 6.13401 13.866 3 10 3C6.13401 3 3 6.13401 3 10C3 13.866 6.13401 17 10 17Z" fill="#3557e5"/></g><g transform="translate(470.01,411.51) scale(2.7245) rotate(0)"><path fill-rule="evenodd" clip-rule="evenodd" d="M10 20C15.5228 20 20 15.5228 20 10C20 4.47715 15.5228 0 10 0C4.47715 0 0 4.47715 0 10C0 15.5228 4.47715 20 10 20ZM10 17C13.866 17 17 13.866 17 10C17 6.13401 13.866 3 10 3C6.13401 3 3 6.13401 3 10C3 13.866 6.13401 17 10 17Z" fill="#ffdbe4"/></g><rect x="526.5" y="409.5" width="58.5" height="58.5" fill="#ffffff"/><path d="M 526.5 438.75 A 29.25 29.25 0 0 0 555.75 409.5 L 526.5 409.5" fill="#ffdfe7"/><circle cx="570.375" cy="424.125" r="14.625" fill="#ff688c"/><circle cx="541.125" cy="453.375" r="14.625" fill="#6c85ec"/><circle cx="570.375" cy="453.375" r="14.625" fill="#ff668a"/><path d="M 585 409.5 A 58.5 58.5 0 0 1  643.5 468 L 585 409.5 A 58.5 58.5 0 0 0 643.5 468" fill="#ffd1dc"/><g transform="translate(643.5,409.5) scale(2.925) rotate(0)"><path fill-rule="evenodd" clip-rule="evenodd" d="M10 20C15.5228 20 20 15.5228 20 10C20 4.47715 15.5228 0 10 0C4.47715 0 0 4.47715 0 10C0 15.5228 4.47715 20 10 20ZM10 17C13.866 17 17 13.866 17 10C17 6.13401 13.866 3 10 3C6.13401 3 3 6.13401 3 10C3 13.866 6.13401 17 10 17Z" fill="#ff537c"/></g><g transform="translate(702,409.5) scale(2.925) rotate(0)"><path fill-rule="evenodd" clip-rule="evenodd" d="M10 20C15.5228 20 20 15.5228 20 10C20 4.47715 15.5228 0 10 0C4.47715 0 0 4.47715 0 10C0 15.5228 4.47715 20 10 20ZM10 17C13.866 17 17 13.866 17 10C17 6.13401 13.866 3 10 3C6.13401 3 3 6.13401 3 10C3 13.866 6.13401 17 10 17Z" fill="#2c4fe4"/></g><rect x="762.5057142857142" y="411.5057142857143" width="54.488571428571426" height="54.488571428571426" fill="#ffffff"/><path d="M 762.51 438.75 A 27.24 27.24 0 0 0 789.75 411.51 L 762.51 411.51" fill="#ff426f"/><circle cx="803.37" cy="425.13" r="13.62" fill="#fffdfd"/><path d="M 762.51 438.75 A 27.24 27.24 0 0 1 789.75 465.99 L 762.51 465.99" fill="#ff86a2"/><path d="M 789.75 438.75 A 27.24 27.24 0 0 0 816.99 465.99 L 816.99 438.75" fill="#c2cdf7"/><path d="M 884.85 416.85 A 43.79 43.79 0 0 1  928.64 460.64000000000004 L 884.85 416.85 A 43.79 43.79 0 0 0 928.64 460.64000000000004" fill="#c2cdf7"/><rect x="946.0285714285715" y="419.5285714285714" width="38.442857142857136" height="38.442857142857136" fill="#ffffff"/><path d="M 965.25 438.75 A 19.22 19.22 0 0 1  984.47 419.53 L 984.47 438.75" fill="#8096ef"/><g transform="translate(946.03,438.75) scale(0.961) rotate(0)"><path fill-rule="evenodd" clip-rule="evenodd" d="M10 20C15.5228 20 20 15.5228 20 10C20 4.47715 15.5228 0 10 0C4.47715 0 0 4.47715 0 10C0 15.5228 4.47715 20 10 20ZM10 17C13.866 17 17 13.866 17 10C17 6.13401 13.866 3 10 3C6.13401 3 3 6.13401 3 10C3 13.866 6.13401 17 10 17Z" fill="#9bacf2"/></g><circle cx="1082.255" cy="438.755" r="13.875" fill="#4e6ce8"/><g transform="translate(248.84,482.84) scale(1.441) rotate(0)"><path fill-rule="evenodd" clip-rule="evenodd" d="M10 20C15.5228 20 20 15.5228 20 10C20 4.47715 15.5228 0 10 0C4.47715 0 0 4.47715 0 10C0 15.5228 4.47715 20 10 20ZM10 17C13.866 17 17 13.866 17 10C17 6.13401 13.866 3 10 3C6.13401 3 3 6.13401 3 10C3 13.866 6.13401 17 10 17Z" fill="#fff7f9"/></g><path d="M 417.92 518.07 A 41.65 41.65 0 0 1  459.57 476.42 L 459.57 518.07" fill="#c2ccf7"/><rect x="474.28457142857144" y="474.28457142857144" width="45.930857142857135" height="45.930857142857135" fill="#ffffff"/><path d="M 474.28 497.25 A 22.97 22.97 0 0 1  497.25 474.28 L 497.25 497.25" fill="#ffd6e0"/><circle cx="508.735" cy="485.765" r="11.485" fill="#ffb6c7"/><circle cx="508.735" cy="508.735" r="11.485" fill="#dde3fb"/><path d="M 531.18 472.68 A 49.14 49.14 0 0 1 580.3199999999999 521.82 L 531.18 521.82" fill="#3557e5"/><rect x="589.68" y="472.68" width="49.14" height="49.14" fill="#ffffff"/><circle cx="601.9649999999999" cy="484.96500000000003" r="12.285" fill="#91a3f1"/><g transform="translate(614.25,472.68) scale(1.2285) rotate(0)"><path fill-rule="evenodd" clip-rule="evenodd" d="M10 20C15.5228 20 20 15.5228 20 10C20 4.47715 15.5228 0 10 0C4.47715 0 0 4.47715 0 10C0 15.5228 4.47715 20 10 20ZM10 17C13.866 17 17 13.866 17 10C17 6.13401 13.866 3 10 3C6.13401 3 3 6.13401 3 10C3 13.866 6.13401 17 10 17Z" fill="#ffbacb"/></g><circle cx="601.9649999999999" cy="509.535" r="12.285" fill="#7d93ee"/><path d="M 766.78 520.2099999999999 A 45.93 45.93 0 0 1  812.7099999999999 474.28 L 812.7099999999999 520.2099999999999" fill="#ffb2c5"/><path d="M 888.06 478.56 A 37.37 37.37 0 0 1  925.43 515.93 L 888.06 478.56 A 37.37 37.37 0 0 0 925.43 515.93" fill="#e6eafc"/><path d="M 421.67 572.8299999999999 A 34.16 34.16 0 0 1  455.83000000000004 538.67 L 455.83000000000004 572.8299999999999" fill="#4363e7"/><g transform="translate(478.56,537.06) scale(1.8684999999999998) rotate(0)"><path fill-rule="evenodd" clip-rule="evenodd" d="M10 20C15.5228 20 20 15.5228 20 10C20 4.47715 15.5228 0 10 0C4.47715 0 0 4.47715 0 10C0 15.5228 4.47715 20 10 20ZM10 17C13.866 17 17 13.866 17 10C17 6.13401 13.866 3 10 3C6.13401 3 3 6.13401 3 10C3 13.866 6.13401 17 10 17Z" fill="#3154e4"/></g><circle cx="731.25" cy="555.75" r="19.89" fill="#90a3f1"/><g transform="translate(771.06,537.06) scale(1.8684999999999998) rotate(0)"><path fill-rule="evenodd" clip-rule="evenodd" d="M10 20C15.5228 20 20 15.5228 20 10C20 4.47715 15.5228 0 10 0C4.47715 0 0 4.47715 0 10C0 15.5228 4.47715 20 10 20ZM10 17C13.866 17 17 13.866 17 10C17 6.13401 13.866 3 10 3C6.13401 3 3 6.13401 3 10C3 13.866 6.13401 17 10 17Z" fill="#ff4a75"/></g><g transform="translate(831.17,538.67) scale(1.7079999999999997) rotate(0)"><path fill-rule="evenodd" clip-rule="evenodd" d="M10 20C15.5228 20 20 15.5228 20 10C20 4.47715 15.5228 0 10 0C4.47715 0 0 4.47715 0 10C0 15.5228 4.47715 20 10 20ZM10 17C13.866 17 17 13.866 17 10C17 6.13401 13.866 3 10 3C6.13401 3 3 6.13401 3 10C3 13.866 6.13401 17 10 17Z" fill="#b6c3f6"/></g><rect x="310.5514285714286" y="603.0514285714286" width="22.39714285714286" height="22.39714285714286" fill="#ffffff"/><circle cx="497.25" cy="614.25" r="14.41" fill="#ff7193"/><path d="M 540.54 629.4599999999999 A 30.42 30.42 0 0 0 570.9599999999999 599.04 L 540.54 599.04" fill="#ff7193"/><g transform="translate(599.04,599.04) scale(1.5210000000000001) rotate(0)"><path fill-rule="evenodd" clip-rule="evenodd" d="M10 20C15.5228 20 20 15.5228 20 10C20 4.47715 15.5228 0 10 0C4.47715 0 0 4.47715 0 10C0 15.5228 4.47715 20 10 20ZM10 17C13.866 17 17 13.866 17 10C17 6.13401 13.866 3 10 3C6.13401 3 3 6.13401 3 10C3 13.866 6.13401 17 10 17Z" fill="#ffc9d6"/></g><g transform="translate(716.04,599.04) scale(1.5210000000000001) rotate(0)"><path fill-rule="evenodd" clip-rule="evenodd" d="M10 20C15.5228 20 20 15.5228 20 10C20 4.47715 15.5228 0 10 0C4.47715 0 0 4.47715 0 10C0 15.5228 4.47715 20 10 20ZM10 17C13.866 17 17 13.866 17 10C17 6.13401 13.866 3 10 3C6.13401 3 3 6.13401 3 10C3 13.866 6.13401 17 10 17Z" fill="#ffcad6"/></g><path d="M 894.48 626.52 A 24.54 24.54 0 0 1  919.02 601.98 L 919.02 626.52" fill="#ffa2b8"/><g transform="translate(779.62,662.62) scale(1.0130000000000001) rotate(0)"><path fill-rule="evenodd" clip-rule="evenodd" d="M10 20C15.5228 20 20 15.5228 20 10C20 4.47715 15.5228 0 10 0C4.47715 0 0 4.47715 0 10C0 15.5228 4.47715 20 10 20ZM10 17C13.866 17 17 13.866 17 10C17 6.13401 13.866 3 10 3C6.13401 3 3 6.13401 3 10C3 13.866 6.13401 17 10 17Z" fill="#758ced"/></g><path d="M 1015.76 664.76 A 15.98 15.98 0 0 0 1031.74 680.74 L 1031.74 664.76" fill="#ff86a3"/></g></svg>