<?xml version="1.0" standalone="no"?><svg xmlns:xlink="https://www.w3.org/1999/xlink" xmlns="https://www.w3.org/2000/svg" viewBox="0 0 1000 571.4285714285714" preserveAspectRatio="xMaxYMax slice"><g transform="scale(0.814000814000814)"><rect x="0" y="0" width="1228.5" height="702" fill="#1f2d37"/><g transform="translate(487.12,77.62) scale(1.0130000000000001) rotate(0)"><path fill-rule="evenodd" clip-rule="evenodd" d="M10 20C15.5228 20 20 15.5228 20 10C20 4.47715 15.5228 0 10 0C4.47715 0 0 4.47715 0 10C0 15.5228 4.47715 20 10 20ZM10 17C13.866 17 17 13.866 17 10C17 6.13401 13.866 3 10 3C6.13401 3 3 6.13401 3 10C3 13.866 6.13401 17 10 17Z" fill="#372e3c"/></g><g transform="translate(603.72,77.22) scale(1.053) rotate(0)"><path fill-rule="evenodd" clip-rule="evenodd" d="M10 20C15.5228 20 20 15.5228 20 10C20 4.47715 15.5228 0 10 0C4.47715 0 0 4.47715 0 10C0 15.5228 4.47715 20 10 20ZM10 17C13.866 17 17 13.866 17 10C17 6.13401 13.866 3 10 3C6.13401 3 3 6.13401 3 10C3 13.866 6.13401 17 10 17Z" fill="#193dcb"/></g><rect x="779.6211428571429" y="77.62114285714286" width="20.25771428571428" height="20.25771428571428" fill="#1f2d37"/><rect x="425.412" y="132.912" width="26.676" height="26.676" fill="#1f2d37"/><circle cx="432.08000000000004" cy="139.57999999999998" r="6.67" fill="#2f2e3a"/><circle cx="445.42" cy="139.57999999999998" r="6.67" fill="#1e2f4b"/><path d="M 540.54 131.04 A 30.42 30.42 0 0 1  570.9599999999999 161.45999999999998 L 540.54 131.04 A 30.42 30.42 0 0 0 570.9599999999999 161.45999999999998" fill="#1c3580"/><g transform="translate(716.04,131.04) scale(1.5210000000000001) rotate(0)"><path fill-rule="evenodd" clip-rule="evenodd" d="M10 20C15.5228 20 20 15.5228 20 10C20 4.47715 15.5228 0 10 0C4.47715 0 0 4.47715 0 10C0 15.5228 4.47715 20 10 20ZM10 17C13.866 17 17 13.866 17 10C17 6.13401 13.866 3 10 3C6.13401 3 3 6.13401 3 10C3 13.866 6.13401 17 10 17Z" fill="#592f43"/></g><rect x="775.3422857142857" y="131.8422857142857" width="28.81542857142857" height="28.81542857142857" fill="#1f2d37"/><g transform="translate(775.34,146.25) scale(0.7205) rotate(0)"><path fill-rule="evenodd" clip-rule="evenodd" d="M10 20C15.5228 20 20 15.5228 20 10C20 4.47715 15.5228 0 10 0C4.47715 0 0 4.47715 0 10C0 15.5228 4.47715 20 10 20ZM10 17C13.866 17 17 13.866 17 10C17 6.13401 13.866 3 10 3C6.13401 3 3 6.13401 3 10C3 13.866 6.13401 17 10 17Z" fill="#1f2d3a"/></g><path d="M 894.48 158.51999999999998 A 24.54 24.54 0 0 0 919.02 133.98 L 894.48 133.98" fill="#ad3254"/><g transform="translate(594.36,184.86) scale(1.989) rotate(0)"><path fill-rule="evenodd" clip-rule="evenodd" d="M10 20C15.5228 20 20 15.5228 20 10C20 4.47715 15.5228 0 10 0C4.47715 0 0 4.47715 0 10C0 15.5228 4.47715 20 10 20ZM10 17C13.866 17 17 13.866 17 10C17 6.13401 13.866 3 10 3C6.13401 3 3 6.13401 3 10C3 13.866 6.13401 17 10 17Z" fill="#ac3254"/></g><path d="M 831.17 221.82999999999998 A 34.16 34.16 0 0 1  865.3299999999999 187.67 L 865.3299999999999 221.82999999999998" fill="#1a3bbc"/><path d="M 891.27 220.22 A 30.95 30.95 0 0 1  922.22 189.27 L 891.27 220.22 A 30.95 30.95 0 0 0 922.22 189.27" fill="#90314e"/><rect x="305.20285714285717" y="246.70285714285714" width="33.09428571428572" height="33.09428571428572" fill="#1f2d37"/><circle cx="313.47499999999997" cy="254.975" r="8.275" fill="#e4345f"/><circle cx="330.025" cy="254.975" r="8.275" fill="#193dd1"/><path d="M 305.2 263.25 A 16.55 16.55 0 0 1  321.75 279.8 L 305.2 263.25 A 16.55 16.55 0 0 0 321.75 279.8" fill="#193cc8"/><path d="M 321.75 279.8 A 16.55 16.55 0 0 1  338.3 263.25 L 338.3 279.8" fill="#1a3ab3"/><rect x="474.28457142857144" y="240.28457142857144" width="45.930857142857135" height="45.930857142857135" fill="#1f2d37"/><g transform="translate(497.25,240.28) scale(1.1484999999999999) rotate(0)"><path fill-rule="evenodd" clip-rule="evenodd" d="M10 20C15.5228 20 20 15.5228 20 10C20 4.47715 15.5228 0 10 0C4.47715 0 0 4.47715 0 10C0 15.5228 4.47715 20 10 20ZM10 17C13.866 17 17 13.866 17 10C17 6.13401 13.866 3 10 3C6.13401 3 3 6.13401 3 10C3 13.866 6.13401 17 10 17Z" fill="#85314c"/></g><g transform="translate(497.25,263.25) scale(1.1484999999999999) rotate(0)"><path fill-rule="evenodd" clip-rule="evenodd" d="M10 20C15.5228 20 20 15.5228 20 10C20 4.47715 15.5228 0 10 0C4.47715 0 0 4.47715 0 10C0 15.5228 4.47715 20 10 20ZM10 17C13.866 17 17 13.866 17 10C17 6.13401 13.866 3 10 3C6.13401 3 3 6.13401 3 10C3 13.866 6.13401 17 10 17Z" fill="#85314c"/></g><g transform="translate(531.18,238.68) scale(2.457) rotate(0)"><path fill-rule="evenodd" clip-rule="evenodd" d="M10 20C15.5228 20 20 15.5228 20 10C20 4.47715 15.5228 0 10 0C4.47715 0 0 4.47715 0 10C0 15.5228 4.47715 20 10 20ZM10 17C13.866 17 17 13.866 17 10C17 6.13401 13.866 3 10 3C6.13401 3 3 6.13401 3 10C3 13.866 6.13401 17 10 17Z" fill="#1e3051"/></g><circle cx="614.25" cy="263.25" r="24.57" fill="#d6345d"/><path d="M 648.18 287.82 A 49.14 49.14 0 0 1  697.3199999999999 238.68 L 697.3199999999999 287.82" fill="#1f2d3b"/><g transform="translate(766.78,240.28) scale(2.2965) rotate(0)"><path fill-rule="evenodd" clip-rule="evenodd" d="M10 20C15.5228 20 20 15.5228 20 10C20 4.47715 15.5228 0 10 0C4.47715 0 0 4.47715 0 10C0 15.5228 4.47715 20 10 20ZM10 17C13.866 17 17 13.866 17 10C17 6.13401 13.866 3 10 3C6.13401 3 3 6.13401 3 10C3 13.866 6.13401 17 10 17Z" fill="#1c3583"/></g><rect x="827.424" y="242.424" width="41.652" height="41.652" fill="#1f2d37"/><circle cx="837.8349999999999" cy="252.83499999999998" r="10.415" fill="#193bbd"/><path d="M 848.25 242.42 A 20.83 20.83 0 0 0 869.08 263.25 L 869.08 242.42" fill="#1a3ab3"/><g transform="translate(827.42,263.25) scale(1.0414999999999999) rotate(0)"><path fill-rule="evenodd" clip-rule="evenodd" d="M10 20C15.5228 20 20 15.5228 20 10C20 4.47715 15.5228 0 10 0C4.47715 0 0 4.47715 0 10C0 15.5228 4.47715 20 10 20ZM10 17C13.866 17 17 13.866 17 10C17 6.13401 13.866 3 10 3C6.13401 3 3 6.13401 3 10C3 13.866 6.13401 17 10 17Z" fill="#1c357f"/></g><circle cx="858.665" cy="273.665" r="10.415" fill="#193cc4"/><circle cx="906.7449999999999" cy="263.245" r="18.685" fill="#b23255"/><g transform="translate(1130.62,253.12) scale(1.0130000000000001) rotate(0)"><path fill-rule="evenodd" clip-rule="evenodd" d="M10 20C15.5228 20 20 15.5228 20 10C20 4.47715 15.5228 0 10 0C4.47715 0 0 4.47715 0 10C0 15.5228 4.47715 20 10 20ZM10 17C13.866 17 17 13.866 17 10C17 6.13401 13.866 3 10 3C6.13401 3 3 6.13401 3 10C3 13.866 6.13401 17 10 17Z" fill="#1f2e42"/></g><circle cx="204.755" cy="321.755" r="13.875" fill="#fa3564"/><circle cx="263.245" cy="321.745" r="16.545" fill="#1c368b"/><rect x="302.5285714285714" y="302.5285714285714" width="38.442857142857136" height="38.442857142857136" fill="#1f2d37"/><circle cx="497.255" cy="321.755" r="27.245" fill="#1b368d"/><g transform="translate(526.5,292.5) scale(2.925) rotate(0)"><path fill-rule="evenodd" clip-rule="evenodd" d="M10 20C15.5228 20 20 15.5228 20 10C20 4.47715 15.5228 0 10 0C4.47715 0 0 4.47715 0 10C0 15.5228 4.47715 20 10 20ZM10 17C13.866 17 17 13.866 17 10C17 6.13401 13.866 3 10 3C6.13401 3 3 6.13401 3 10C3 13.866 6.13401 17 10 17Z" fill="#e93460"/></g><path d="M 585 351 A 58.5 58.5 0 0 0 643.5 292.5 L 585 292.5" fill="#cd335b"/><circle cx="672.75" cy="321.75" r="29.25" fill="#1d3262"/><circle cx="731.25" cy="321.75" r="29.25" fill="#432e3e"/><path d="M 884.85 299.85 A 43.79 43.79 0 0 0 928.64 343.64000000000004 L 928.64 299.85" fill="#183fdd"/><circle cx="965.25" cy="321.75" r="19.22" fill="#1c357e"/><circle cx="1023.745" cy="321.745" r="16.545" fill="#1d3160"/><circle cx="146.25" cy="380.25" r="11.2" fill="#1e3057"/><path d="M 358.35 358.35 A 43.79 43.79 0 0 1  402.14000000000004 402.14000000000004 L 358.35 358.35 A 43.79 43.79 0 0 0 402.14000000000004 402.14000000000004" fill="#242d38"/><circle cx="438.75" cy="380.25" r="24.57" fill="#193cc2"/><g transform="translate(470.01,353.01) scale(2.7245) rotate(0)"><path fill-rule="evenodd" clip-rule="evenodd" d="M10 20C15.5228 20 20 15.5228 20 10C20 4.47715 15.5228 0 10 0C4.47715 0 0 4.47715 0 10C0 15.5228 4.47715 20 10 20ZM10 17C13.866 17 17 13.866 17 10C17 6.13401 13.866 3 10 3C6.13401 3 3 6.13401 3 10C3 13.866 6.13401 17 10 17Z" fill="#1a3ab1"/></g><circle cx="555.75" cy="380.25" r="29.25" fill="#1d3263"/><path d="M 585 351 A 58.5 58.5 0 0 1 643.5 409.5 L 585 409.5" fill="#95314f"/><circle cx="672.75" cy="380.25" r="29.25" fill="#1e315a"/><rect x="702" y="351" width="58.5" height="58.5" fill="#1f2d37"/><g transform="translate(702,351) scale(1.4625) rotate(0)"><path fill-rule="evenodd" clip-rule="evenodd" d="M10 20C15.5228 20 20 15.5228 20 10C20 4.47715 15.5228 0 10 0C4.47715 0 0 4.47715 0 10C0 15.5228 4.47715 20 10 20ZM10 17C13.866 17 17 13.866 17 10C17 6.13401 13.866 3 10 3C6.13401 3 3 6.13401 3 10C3 13.866 6.13401 17 10 17Z" fill="#ca335a"/></g><g transform="translate(731.25,351) scale(1.4625) rotate(0)"><path fill-rule="evenodd" clip-rule="evenodd" d="M10 20C15.5228 20 20 15.5228 20 10C20 4.47715 15.5228 0 10 0C4.47715 0 0 4.47715 0 10C0 15.5228 4.47715 20 10 20ZM10 17C13.866 17 17 13.866 17 10C17 6.13401 13.866 3 10 3C6.13401 3 3 6.13401 3 10C3 13.866 6.13401 17 10 17Z" fill="#1c347e"/></g><path d="M 702 380.25 A 29.25 29.25 0 0 0 731.25 409.5 L 731.25 380.25" fill="#db345e"/><circle cx="745.875" cy="394.875" r="14.625" fill="#c9335a"/><path d="M 762.51 353.01 A 54.49 54.49 0 0 1 817 407.5 L 762.51 407.5" fill="#193cc6"/><g transform="translate(823.68,355.68) scale(2.457) rotate(0)"><path fill-rule="evenodd" clip-rule="evenodd" d="M10 20C15.5228 20 20 15.5228 20 10C20 4.47715 15.5228 0 10 0C4.47715 0 0 4.47715 0 10C0 15.5228 4.47715 20 10 20ZM10 17C13.866 17 17 13.866 17 10C17 6.13401 13.866 3 10 3C6.13401 3 3 6.13401 3 10C3 13.866 6.13401 17 10 17Z" fill="#1b389c"/></g><circle cx="1023.745" cy="380.245" r="16.545" fill="#7b304a"/><path d="M 1068.38 394.13 A 27.75 27.75 0 0 1  1096.13 366.38 L 1096.13 394.13" fill="#1b38a1"/><circle cx="87.75500000000001" cy="438.755" r="8.525" fill="#1d326b"/><g transform="translate(190.88,424.88) scale(1.3875) rotate(0)"><path fill-rule="evenodd" clip-rule="evenodd" d="M10 20C15.5228 20 20 15.5228 20 10C20 4.47715 15.5228 0 10 0C4.47715 0 0 4.47715 0 10C0 15.5228 4.47715 20 10 20ZM10 17C13.866 17 17 13.866 17 10C17 6.13401 13.866 3 10 3C6.13401 3 3 6.13401 3 10C3 13.866 6.13401 17 10 17Z" fill="#713048"/></g><g transform="translate(302.53,419.53) scale(1.922) rotate(0)"><path fill-rule="evenodd" clip-rule="evenodd" d="M10 20C15.5228 20 20 15.5228 20 10C20 4.47715 15.5228 0 10 0C4.47715 0 0 4.47715 0 10C0 15.5228 4.47715 20 10 20ZM10 17C13.866 17 17 13.866 17 10C17 6.13401 13.866 3 10 3C6.13401 3 3 6.13401 3 10C3 13.866 6.13401 17 10 17Z" fill="#4b2f40"/></g><circle cx="438.75" cy="438.75" r="24.57" fill="#f23562"/><g transform="translate(470.01,411.51) scale(2.7245) rotate(0)"><path fill-rule="evenodd" clip-rule="evenodd" d="M10 20C15.5228 20 20 15.5228 20 10C20 4.47715 15.5228 0 10 0C4.47715 0 0 4.47715 0 10C0 15.5228 4.47715 20 10 20ZM10 17C13.866 17 17 13.866 17 10C17 6.13401 13.866 3 10 3C6.13401 3 3 6.13401 3 10C3 13.866 6.13401 17 10 17Z" fill="#432e3e"/></g><g transform="translate(526.5,409.5) scale(2.925) rotate(0)"><path fill-rule="evenodd" clip-rule="evenodd" d="M10 20C15.5228 20 20 15.5228 20 10C20 4.47715 15.5228 0 10 0C4.47715 0 0 4.47715 0 10C0 15.5228 4.47715 20 10 20ZM10 17C13.866 17 17 13.866 17 10C17 6.13401 13.866 3 10 3C6.13401 3 3 6.13401 3 10C3 13.866 6.13401 17 10 17Z" fill="#bd3357"/></g><g transform="translate(585,409.5) scale(2.925) rotate(0)"><path fill-rule="evenodd" clip-rule="evenodd" d="M10 20C15.5228 20 20 15.5228 20 10C20 4.47715 15.5228 0 10 0C4.47715 0 0 4.47715 0 10C0 15.5228 4.47715 20 10 20ZM10 17C13.866 17 17 13.866 17 10C17 6.13401 13.866 3 10 3C6.13401 3 3 6.13401 3 10C3 13.866 6.13401 17 10 17Z" fill="#8e314e"/></g><circle cx="672.75" cy="438.75" r="29.25" fill="#1e2f48"/><g transform="translate(702,409.5) scale(2.925) rotate(0)"><path fill-rule="evenodd" clip-rule="evenodd" d="M10 20C15.5228 20 20 15.5228 20 10C20 4.47715 15.5228 0 10 0C4.47715 0 0 4.47715 0 10C0 15.5228 4.47715 20 10 20ZM10 17C13.866 17 17 13.866 17 10C17 6.13401 13.866 3 10 3C6.13401 3 3 6.13401 3 10C3 13.866 6.13401 17 10 17Z" fill="#193dca"/></g><g transform="translate(762.51,411.51) scale(2.7245) rotate(0)"><path fill-rule="evenodd" clip-rule="evenodd" d="M10 20C15.5228 20 20 15.5228 20 10C20 4.47715 15.5228 0 10 0C4.47715 0 0 4.47715 0 10C0 15.5228 4.47715 20 10 20ZM10 17C13.866 17 17 13.866 17 10C17 6.13401 13.866 3 10 3C6.13401 3 3 6.13401 3 10C3 13.866 6.13401 17 10 17Z" fill="#193dcb"/></g><circle cx="848.25" cy="438.75" r="24.57" fill="#1d3370"/><rect x="884.8542857142858" y="416.8542857142857" width="43.79142857142857" height="43.79142857142857" fill="#1f2d37"/><circle cx="917.7" cy="427.8" r="10.95" fill="#183ed8"/><rect x="1007.2028571428572" y="422.20285714285717" width="33.09428571428571" height="33.09428571428571" fill="#1f2d37"/><g transform="translate(1023.75,438.75) scale(0.8275) rotate(0)"><path fill-rule="evenodd" clip-rule="evenodd" d="M10 20C15.5228 20 20 15.5228 20 10C20 4.47715 15.5228 0 10 0C4.47715 0 0 4.47715 0 10C0 15.5228 4.47715 20 10 20ZM10 17C13.866 17 17 13.866 17 10C17 6.13401 13.866 3 10 3C6.13401 3 3 6.13401 3 10C3 13.866 6.13401 17 10 17Z" fill="#1a3aaf"/></g><path d="M 79.76 505.24 A 15.98 15.98 0 0 0 95.74000000000001 489.26 L 79.76 489.26" fill="#fd3565"/><path d="M 192.48 484.98 A 24.54 24.54 0 0 1 217.01999999999998 509.52000000000004 L 192.48 509.52000000000004" fill="#1c347e"/><circle cx="263.25" cy="497.25" r="14.41" fill="#2a2d39"/><g transform="translate(305.2,480.7) scale(1.6545) rotate(0)"><path fill-rule="evenodd" clip-rule="evenodd" d="M10 20C15.5228 20 20 15.5228 20 10C20 4.47715 15.5228 0 10 0C4.47715 0 0 4.47715 0 10C0 15.5228 4.47715 20 10 20ZM10 17C13.866 17 17 13.866 17 10C17 6.13401 13.866 3 10 3C6.13401 3 3 6.13401 3 10C3 13.866 6.13401 17 10 17Z" fill="#1b3795"/></g><g transform="translate(531.18,472.68) scale(2.457) rotate(0)"><path fill-rule="evenodd" clip-rule="evenodd" d="M10 20C15.5228 20 20 15.5228 20 10C20 4.47715 15.5228 0 10 0C4.47715 0 0 4.47715 0 10C0 15.5228 4.47715 20 10 20ZM10 17C13.866 17 17 13.866 17 10C17 6.13401 13.866 3 10 3C6.13401 3 3 6.13401 3 10C3 13.866 6.13401 17 10 17Z" fill="#e1345f"/></g><rect x="589.68" y="472.68" width="49.14" height="49.14" fill="#1f2d37"/><path d="M 589.68 472.68 A 24.57 24.57 0 0 1 614.25 497.25 L 589.68 497.25" fill="#b83256"/><path d="M 589.68 497.25 A 24.57 24.57 0 0 1  614.25 521.82 L 589.68 497.25 A 24.57 24.57 0 0 0 614.25 521.82" fill="#1d3373"/><path d="M 648.18 472.68 A 49.14 49.14 0 0 0 697.3199999999999 521.82 L 697.3199999999999 472.68" fill="#be3358"/><g transform="translate(706.68,472.68) scale(2.457) rotate(0)"><path fill-rule="evenodd" clip-rule="evenodd" d="M10 20C15.5228 20 20 15.5228 20 10C20 4.47715 15.5228 0 10 0C4.47715 0 0 4.47715 0 10C0 15.5228 4.47715 20 10 20ZM10 17C13.866 17 17 13.866 17 10C17 6.13401 13.866 3 10 3C6.13401 3 3 6.13401 3 10C3 13.866 6.13401 17 10 17Z" fill="#e73460"/></g><circle cx="789.745" cy="497.24499999999995" r="22.965" fill="#2b2d39"/><rect x="827.424" y="476.424" width="41.652" height="41.652" fill="#1f2d37"/><circle cx="858.665" cy="486.83500000000004" r="10.415" fill="#1b3791"/><g transform="translate(827.42,497.25) scale(1.0414999999999999) rotate(0)"><path fill-rule="evenodd" clip-rule="evenodd" d="M10 20C15.5228 20 20 15.5228 20 10C20 4.47715 15.5228 0 10 0C4.47715 0 0 4.47715 0 10C0 15.5228 4.47715 20 10 20ZM10 17C13.866 17 17 13.866 17 10C17 6.13401 13.866 3 10 3C6.13401 3 3 6.13401 3 10C3 13.866 6.13401 17 10 17Z" fill="#f53563"/></g><path d="M 848.25 497.25 A 20.83 20.83 0 0 0 869.08 518.08 L 869.08 497.25" fill="#a63253"/><path d="M 307.88 569.63 A 27.75 27.75 0 0 1  335.63 541.88 L 335.63 569.63" fill="#f13462"/><path d="M 364.77 540.27 A 30.95 30.95 0 0 0 395.71999999999997 571.22 L 395.71999999999997 540.27" fill="#1e2f48"/><path d="M 478.56 537.06 A 37.37 37.37 0 0 0 515.93 574.43 L 515.93 537.06" fill="#1e2e45"/><circle cx="555.75" cy="555.75" r="19.89" fill="#7b304a"/><circle cx="614.25" cy="555.75" r="19.89" fill="#eb3461"/><circle cx="672.75" cy="555.75" r="19.89" fill="#1e2f47"/><circle cx="731.25" cy="555.75" r="19.89" fill="#1b3690"/><path d="M 951.38 569.63 A 27.75 27.75 0 0 1  979.13 541.88 L 951.38 569.63 A 27.75 27.75 0 0 0 979.13 541.88" fill="#783049"/><rect x="1011.4817142857142" y="543.4817142857142" width="24.536571428571428" height="24.536571428571428" fill="#1f2d37"/><g transform="translate(1023.75,555.75) scale(0.6134999999999999) rotate(0)"><path fill-rule="evenodd" clip-rule="evenodd" d="M10 20C15.5228 20 20 15.5228 20 10C20 4.47715 15.5228 0 10 0C4.47715 0 0 4.47715 0 10C0 15.5228 4.47715 20 10 20ZM10 17C13.866 17 17 13.866 17 10C17 6.13401 13.866 3 10 3C6.13401 3 3 6.13401 3 10C3 13.866 6.13401 17 10 17Z" fill="#183ed9"/></g><rect x="138.26057142857144" y="606.2605714285714" width="15.978857142857137" height="15.978857142857137" fill="#1f2d37"/><path d="M 657.54 599.04 A 30.42 30.42 0 0 1 687.9599999999999 629.4599999999999 L 657.54 629.4599999999999" fill="#fa3564"/><rect x="716.04" y="599.04" width="30.42" height="30.42" fill="#1f2d37"/><g transform="translate(716.04,599.04) scale(0.7605000000000001) rotate(0)"><path fill-rule="evenodd" clip-rule="evenodd" d="M10 20C15.5228 20 20 15.5228 20 10C20 4.47715 15.5228 0 10 0C4.47715 0 0 4.47715 0 10C0 15.5228 4.47715 20 10 20ZM10 17C13.866 17 17 13.866 17 10C17 6.13401 13.866 3 10 3C6.13401 3 3 6.13401 3 10C3 13.866 6.13401 17 10 17Z" fill="#e0345f"/></g><path d="M 716.04 629.46 A 15.21 15.21 0 0 1  731.25 614.25 L 731.25 629.46" fill="#1a3bbb"/><g transform="translate(775.34,599.84) scale(1.441) rotate(0)"><path fill-rule="evenodd" clip-rule="evenodd" d="M10 20C15.5228 20 20 15.5228 20 10C20 4.47715 15.5228 0 10 0C4.47715 0 0 4.47715 0 10C0 15.5228 4.47715 20 10 20ZM10 17C13.866 17 17 13.866 17 10C17 6.13401 13.866 3 10 3C6.13401 3 3 6.13401 3 10C3 13.866 6.13401 17 10 17Z" fill="#dd345e"/></g><g transform="translate(894.48,601.98) scale(1.2269999999999999) rotate(0)"><path fill-rule="evenodd" clip-rule="evenodd" d="M10 20C15.5228 20 20 15.5228 20 10C20 4.47715 15.5228 0 10 0C4.47715 0 0 4.47715 0 10C0 15.5228 4.47715 20 10 20ZM10 17C13.866 17 17 13.866 17 10C17 6.13401 13.866 3 10 3C6.13401 3 3 6.13401 3 10C3 13.866 6.13401 17 10 17Z" fill="#7a304a"/></g><g transform="translate(487.12,662.62) scale(1.0130000000000001) rotate(0)"><path fill-rule="evenodd" clip-rule="evenodd" d="M10 20C15.5228 20 20 15.5228 20 10C20 4.47715 15.5228 0 10 0C4.47715 0 0 4.47715 0 10C0 15.5228 4.47715 20 10 20ZM10 17C13.866 17 17 13.866 17 10C17 6.13401 13.866 3 10 3C6.13401 3 3 6.13401 3 10C3 13.866 6.13401 17 10 17Z" fill="#1a3bbc"/></g><circle cx="906.75" cy="672.75" r="9.06" fill="#f23562"/></g></svg>